<svg width="1295" height="1326" viewBox="0 0 1295 1326" fill="none" xmlns="http://www.w3.org/2000/svg">
<path fill-rule="evenodd" clip-rule="evenodd" d="M608.848 13.5455C590.072 38.9097 586.564 83.3835 625.68 137.984C650.162 172.156 675.67 191.899 697.592 208.866C717.746 224.465 734.868 237.717 745.374 257.678C753.261 272.664 760.379 289.351 767.179 305.294C779.289 333.686 790.39 359.714 803.032 369.546C805.176 371.214 807.942 373.038 811.339 375.277C839.216 393.654 909.619 440.066 1028.32 658.748C1073.19 741.42 1186.47 890.736 1294.67 1021.16C986.242 1023.76 817.127 1150.49 729.605 1325.74C703.841 1258.65 684.906 1203.67 679.574 1176.38C668.334 1118.86 668.071 1074.45 667.868 1040.06C667.731 1016.94 667.621 998.354 664.22 983.363C657.122 952.078 621.129 899.621 585.848 874.102C574.026 865.55 558.564 867.052 545.472 873.494C491.987 899.81 394.421 934.539 267.344 942.732C231.035 945.073 195.248 934.739 163.938 916.204L98.0788 877.217C85.3362 869.673 73.3748 860.821 62.5295 850.738C24.637 815.511 7.7651 797.441 1.263 774.075C-4.01216 755.119 7.90437 736.403 24.6031 725.995L277.254 568.515C309.275 455.375 339.057 436.074 409.242 390.59C411.17 389.341 413.129 388.071 415.119 386.78C438.064 371.888 458.442 362.197 476.006 353.845C544.547 321.25 570.249 309.028 538.573 87.5358C533.615 52.8688 559.063 -4.03075 604.687 0.225847C610.879 0.803479 612.548 8.54762 608.848 13.5455Z" fill="white"/>
</svg>
